# xmcd
#
# Track frame offsets: 
#        150
#        1845
#        20124
#        47809
#        74234
#        95771
#        120306
#        142842
#        165249
#        190718
#        219612
#        233775
#        255296
#        280332
#
# Disc length: 4072 seconds
#
# Revision: 28
# Processed by: cddbd v1.5.2PL0 Copyright (c) Steve Scherf et al.
# Submitted via: ExactAudioCopy v0.99pb5
#
DISCID=be0fe60e
DTITLE=CHEMISTRY - Second to None
DYEAR=2003
DGENRE=R&B
TTITLE0=Intro-lude ~You're My Second to None~
TTITLE1=It Takes Two
TTITLE2=STILL ECHO
TTITLE3=My Gift to You
TTITLE4=Running Away
TTITLE5=BACK TOGHETHER AGAIN Interlude ~@Electric Lady Studio, NYC~
TTITLE6=No Color Line by ???
TTITLE7=FLOATIN'
TTITLE8=SOLID DREAM
TTITLE9=Let's Get Together Now (Tokyo Calling) Interlude ~@Yuigahama, 
TTITLE9=KAMAKURA~
TTITLE10=RIPTIDE by ????
TTITLE11=??
TTITLE12=?????
TTITLE13=??????? ~New Jersey United~
EXTD=YEAR: 2003
EXTT0=
EXTT1=
EXTT2=
EXTT3=
EXTT4=
EXTT5=
EXTT6=
EXTT7=
EXTT8=
EXTT9=
EXTT10=
EXTT11=
EXTT12=
EXTT13=
PLAYORDER=
